<svg width="369" height="352" viewBox="0 0 369 352" fill="none" xmlns="http://www.w3.org/2000/svg">
<path d="M91.2336 189.919C96.9843 80.6245 102.735 80.6245 108.486 189.919C113.228 260.885 118.979 260.885 125.738 189.919C131.488 118.954 137.239 118.954 142.989 189.919C149.847 288.209 155.598 288.209 160.241 189.919C165.992 91.6299 171.743 91.6299 177.493 189.919C181.956 244.187 187.707 244.187 194.745 189.919C200.496 135.651 206.247 135.651 211.997 189.919C218.974 267.337 224.725 267.337 229.249 189.919C235 112.502 240.75 112.502 246.501 189.919C252.675 278.721 258.425 278.721 263.753 189.919" stroke="#5BFF21" stroke-width="7"/>
<path fill-rule="evenodd" clip-rule="evenodd" d="M25.4545 168.825C20.841 171.887 16.6519 175.582 13 179.793V264.43C16.6519 268.642 20.841 272.337 25.4545 275.398V168.825ZM41.2864 282.819C46.3262 284.316 51.6343 285.15 57.1183 285.223V98.2734C50.1808 109.521 44.8029 121.834 41.2864 134.909V282.819ZM84.4881 165.389C80.8338 163.524 76.9726 162.031 72.9502 160.959V283.265C76.9726 282.192 80.8338 280.7 84.4881 278.835L84.4881 165.389ZM172.584 65.8704C125.393 65.8704 85.5572 97.7909 72.9502 141.491V77.3222C98.3372 49.5952 134.833 32.208 175.389 32.208C252.078 32.208 314.246 94.3764 314.246 171.065L276.376 171.065C276.376 112.968 229.907 65.8704 172.584 65.8704Z" fill="#F82D2D"/>
<mask id="mask0" mask-type="alpha" maskUnits="userSpaceOnUse" x="238" y="158" width="131" height="127">
<ellipse cx="303.727" cy="221.559" rx="65.2207" ry="63.1168" fill="#E43434"/>
</mask>
<g mask="url(#mask0)">
<path fill-rule="evenodd" clip-rule="evenodd" d="M272.169 276.808C281.52 281.821 292.279 284.676 303.727 284.676C316.934 284.676 329.223 280.877 339.493 274.347V168.77C329.223 162.241 316.934 158.442 303.727 158.442C292.279 158.442 281.52 161.296 272.169 166.309V276.808Z" fill="#F82D2D"/>
</g>
<mask id="mask1" mask-type="alpha" maskUnits="userSpaceOnUse" x="91" y="255" width="186" height="72">
<ellipse cx="183.571" cy="290.766" rx="92.5714" ry="35.7662" fill="#F04949"/>
</mask>
<g mask="url(#mask1)">
<path fill-rule="evenodd" clip-rule="evenodd" d="M169.864 255.186C162.224 255.487 154.858 256.147 147.882 257.121L113.865 316.041C119.183 318.098 125.145 319.906 131.626 321.416L169.864 255.186ZM149.226 324.594C158.674 325.85 168.812 326.532 179.364 326.532C230.489 326.532 271.935 310.519 271.935 290.766C271.935 272.309 235.748 257.117 189.289 255.203L149.226 324.594ZM86.7922 290.766C86.7922 278.712 102.228 268.05 125.879 261.57L98.8319 308.417C91.1688 303.209 86.7922 297.185 86.7922 290.766Z" fill="#F82D2D"/>
</g>
</svg>
