<!-- <svg width="369" height="352" viewBox="0 0 369 352" fill="none" xmlns="http://www.w3.org/2000/svg">
<path d="M91.2336 189.919C96.9843 80.6245 102.735 80.6245 108.486 189.919C113.228 260.885 118.979 260.885 125.738 189.919C131.488 118.954 137.239 118.954 142.989 189.919C149.847 288.209 155.598 288.209 160.241 189.919C165.992 91.6299 171.743 91.6299 177.493 189.919C181.956 244.187 187.707 244.187 194.745 189.919C200.496 135.651 206.247 135.651 211.997 189.919C218.974 267.337 224.725 267.337 229.249 189.919C235 112.502 240.75 112.502 246.501 189.919C252.675 278.721 258.425 278.721 263.753 189.919" stroke="#5BFF21" stroke-width="7"/>
<path fill-rule="evenodd" clip-rule="evenodd" d="M25.4545 168.825C20.841 171.887 16.6519 175.582 13 179.793V264.43C16.6519 268.642 20.841 272.337 25.4545 275.398V168.825ZM41.2864 282.819C46.3262 284.316 51.6343 285.15 57.1183 285.223V98.2734C50.1808 109.521 44.8029 121.834 41.2864 134.909V282.819ZM84.4881 165.389C80.8338 163.524 76.9726 162.031 72.9502 160.959V283.265C76.9726 282.192 80.8338 280.7 84.4881 278.835L84.4881 165.389ZM172.584 65.8704C125.393 65.8704 85.5572 97.7909 72.9502 141.491V77.3222C98.3372 49.5952 134.833 32.208 175.389 32.208C252.078 32.208 314.246 94.3764 314.246 171.065L276.376 171.065C276.376 112.968 229.907 65.8704 172.584 65.8704Z" fill="#F82D2D"/>
<mask id="mask0" mask-type="alpha" maskUnits="userSpaceOnUse" x="238" y="158" width="131" height="127">
<ellipse cx="303.727" cy="221.559" rx="65.2207" ry="63.1168" fill="#E43434"/>
</mask>
<g mask="url(#mask0)">
<path fill-rule="evenodd" clip-rule="evenodd" d="M272.169 276.808C281.52 281.821 292.279 284.676 303.727 284.676C316.934 284.676 329.223 280.877 339.493 274.347V168.77C329.223 162.241 316.934 158.442 303.727 158.442C292.279 158.442 281.52 161.296 272.169 166.309V276.808Z" fill="#F82D2D"/>
</g>
<mask id="mask1" mask-type="alpha" maskUnits="userSpaceOnUse" x="91" y="255" width="186" height="72">
<ellipse cx="183.571" cy="290.766" rx="92.5714" ry="35.7662" fill="#F04949"/>
</mask>
<g mask="url(#mask1)">
<path fill-rule="evenodd" clip-rule="evenodd" d="M169.864 255.186C162.224 255.487 154.858 256.147 147.882 257.121L113.865 316.041C119.183 318.098 125.145 319.906 131.626 321.416L169.864 255.186ZM149.226 324.594C158.674 325.85 168.812 326.532 179.364 326.532C230.489 326.532 271.935 310.519 271.935 290.766C271.935 272.309 235.748 257.117 189.289 255.203L149.226 324.594ZM86.7922 290.766C86.7922 278.712 102.228 268.05 125.879 261.57L98.8319 308.417C91.1688 303.209 86.7922 297.185 86.7922 290.766Z" fill="#F82D2D"/>
</g>
</svg> -->
<svg width="1519" height="352" viewBox="0 0 1519 352" fill="none" xmlns="http://www.w3.org/2000/svg">
<path d="M91.2336 189.919C96.9843 80.6245 102.735 80.6245 108.486 189.919C113.228 260.885 118.979 260.885 125.738 189.919C131.488 118.954 137.239 118.954 142.989 189.919C149.847 288.209 155.598 288.209 160.241 189.919C165.992 91.6299 171.743 91.6299 177.493 189.919C181.956 244.187 187.707 244.187 194.745 189.919C200.496 135.651 206.247 135.651 211.997 189.919C218.974 267.337 224.725 267.337 229.249 189.919C235 112.502 240.75 112.502 246.501 189.919C252.675 278.721 258.425 278.721 263.753 189.919" stroke="#5BFF21" stroke-width="7"/>
<path fill-rule="evenodd" clip-rule="evenodd" d="M25.4545 168.825C20.841 171.887 16.6519 175.582 13 179.793V264.43C16.6519 268.642 20.841 272.337 25.4545 275.398V168.825ZM41.2864 282.819C46.3262 284.316 51.6343 285.15 57.1183 285.223V98.2734C50.1808 109.521 44.8029 121.834 41.2864 134.909V282.819ZM84.4881 165.389C80.8338 163.524 76.9726 162.031 72.9502 160.959V283.265C76.9726 282.192 80.8338 280.7 84.4881 278.835L84.4881 165.389ZM172.584 65.8704C125.393 65.8704 85.5572 97.7909 72.9502 141.491V77.3222C98.3372 49.5952 134.833 32.208 175.389 32.208C252.078 32.208 314.246 94.3764 314.246 171.065L276.376 171.065C276.376 112.968 229.907 65.8704 172.584 65.8704Z" fill="#F82D2D"/>
<mask id="mask0" mask-type="alpha" maskUnits="userSpaceOnUse" x="238" y="158" width="131" height="127">
<ellipse cx="303.727" cy="221.559" rx="65.2207" ry="63.1168" fill="#E43434"/>
</mask>
<g mask="url(#mask0)">
<path fill-rule="evenodd" clip-rule="evenodd" d="M272.169 276.808C281.52 281.821 292.279 284.676 303.727 284.676C316.934 284.676 329.223 280.877 339.493 274.347V168.77C329.223 162.241 316.934 158.442 303.727 158.442C292.279 158.442 281.52 161.296 272.169 166.309V276.808Z" fill="#F82D2D"/>
</g>
<mask id="mask1" mask-type="alpha" maskUnits="userSpaceOnUse" x="91" y="255" width="186" height="72">
<ellipse cx="183.571" cy="290.766" rx="92.5714" ry="35.7662" fill="#F04949"/>
</mask>
<g mask="url(#mask1)">
<path fill-rule="evenodd" clip-rule="evenodd" d="M169.864 255.186C162.224 255.487 154.858 256.147 147.882 257.121L113.865 316.041C119.183 318.098 125.145 319.906 131.626 321.416L169.864 255.186ZM149.226 324.594C158.674 325.85 168.812 326.532 179.364 326.532C230.489 326.532 271.935 310.519 271.935 290.766C271.935 272.309 235.748 257.117 189.289 255.203L149.226 324.594ZM86.7922 290.766C86.7922 278.712 102.228 268.05 125.879 261.57L98.8319 308.417C91.1688 303.209 86.7922 297.185 86.7922 290.766Z" fill="#F82D2D"/>
</g>
<path d="M572.232 133.778C578.852 133.683 585.426 134.927 591.577 137.439C597.727 139.952 603.333 143.683 608.073 148.419C612.813 153.155 616.595 158.803 619.2 165.039C621.805 171.275 623.184 177.977 623.256 184.759V210.25C623.08 223.939 617.608 236.997 608.041 246.556C598.474 256.115 585.595 261.393 572.232 261.231H510.025C496.67 261.363 483.808 256.075 474.247 246.523C464.686 236.97 459.205 223.93 459 210.25V184.759C459.176 171.07 464.648 158.012 474.215 148.453C483.782 138.894 496.662 133.616 510.025 133.778H572.232ZM486.364 210.25C486.224 216.838 488.633 223.215 493.066 227.991C497.499 232.766 503.595 235.552 510.025 235.741H556.05C549.739 228.816 546.186 219.723 546.09 210.25V197.505H573.491V210.25C573.376 213.433 574.469 216.538 576.54 218.914C578.611 221.29 581.499 222.752 584.599 222.995H592.671C594.842 219.115 595.99 214.723 596.004 210.25V184.759C596.087 181.496 595.543 178.248 594.4 175.201C593.258 172.154 591.541 169.367 589.347 166.999C587.154 164.632 584.526 162.731 581.614 161.405C578.703 160.078 575.565 159.352 572.38 159.269H510.025C503.598 159.467 497.508 162.256 493.077 167.029C488.646 171.802 486.234 178.174 486.364 184.759V210.25Z" fill="black"/>
<path d="M797.398 133.779V159.27H735.191V261.232H707.828V159.27H645.621V133.779H797.398Z" fill="black"/>
<path d="M870.825 261.232C857.462 261.394 844.583 256.116 835.016 246.557C825.449 236.999 819.976 223.94 819.801 210.251V133.779H847.164V210.251C847.081 213.517 847.626 216.768 848.771 219.818C849.915 222.868 851.636 225.656 853.833 228.024C856.031 230.392 858.663 232.292 861.579 233.617C864.495 234.941 867.637 235.663 870.825 235.742H920.591C926.988 235.504 933.037 232.697 937.43 227.927C941.823 223.157 944.207 216.807 944.066 210.251V133.779H971.43V210.251C971.225 223.898 965.769 236.91 956.249 246.457C946.728 256.004 933.913 261.314 920.591 261.232H870.825Z" fill="black"/>
<path d="M1119.65 261.232C1106.3 261.364 1093.44 256.076 1083.88 246.524C1074.32 236.971 1068.83 223.931 1068.63 210.251V184.76C1068.76 178.181 1066.35 171.815 1061.93 167.043C1057.51 162.271 1051.43 159.478 1045.01 159.27H1032.56C1029.44 159.456 1026.52 160.902 1024.44 163.291C1022.36 165.68 1021.28 168.817 1021.46 172.015V261.232H994.092V172.015C994.257 161.723 998.4 151.918 1005.61 144.75C1012.82 137.582 1022.52 133.637 1032.56 133.779H1045.01C1058.35 133.647 1071.19 138.94 1080.73 148.497C1090.27 158.054 1095.72 171.095 1095.88 184.76V210.251C1095.74 216.839 1098.15 223.216 1102.58 227.992C1107.02 232.767 1113.11 235.553 1119.54 235.742C1122.66 235.536 1125.57 234.085 1127.65 231.7C1129.72 229.315 1130.8 226.189 1130.65 222.996V133.779H1158.01V222.996C1157.86 233.272 1153.73 243.065 1146.54 250.232C1139.35 257.398 1129.68 261.354 1119.65 261.232V261.232Z" fill="black"/>
<path d="M1207.96 222.997C1207.82 226.187 1208.91 229.308 1210.98 231.69C1213.06 234.073 1215.96 235.527 1219.07 235.742H1332.27V261.233H1219.18C1214.2 261.318 1209.25 260.397 1204.61 258.521C1199.97 256.646 1195.74 253.853 1192.16 250.302C1188.58 246.752 1185.71 242.513 1183.73 237.827C1181.75 233.142 1180.68 228.103 1180.6 222.997V172.015C1180.68 166.909 1181.75 161.87 1183.73 157.185C1185.71 152.499 1188.58 148.26 1192.16 144.71C1195.74 141.159 1199.97 138.366 1204.61 136.491C1209.25 134.615 1214.2 133.694 1219.18 133.779H1332.38V159.27H1219.18C1216.06 159.456 1213.14 160.902 1211.06 163.291C1208.98 165.68 1207.9 168.817 1208.08 172.015V184.761H1320.05V210.251H1207.96V222.997Z" fill="black"/>
<path d="M1354.78 261.233V235.742H1480.45C1483.57 235.537 1486.48 234.085 1488.56 231.701C1490.64 229.316 1491.71 226.19 1491.56 222.997C1491.73 219.799 1490.66 216.662 1488.58 214.273C1486.5 211.883 1483.58 210.437 1480.45 210.252H1393.36C1383.3 210.404 1373.59 206.465 1366.36 199.299C1359.13 192.132 1354.97 182.321 1354.78 172.016C1354.97 161.71 1359.13 151.899 1366.36 144.733C1373.59 137.566 1383.3 133.627 1393.36 133.78H1506.56V159.27H1393.36C1390.25 159.485 1387.35 160.94 1385.27 163.322C1383.2 165.704 1382.11 168.825 1382.26 172.016C1382.14 175.199 1383.23 178.303 1385.31 180.679C1387.38 183.055 1390.26 184.518 1393.36 184.761H1480.45C1485.44 184.676 1490.39 185.597 1495.02 187.473C1499.66 189.349 1503.88 192.142 1507.46 195.694C1511.04 199.245 1513.91 203.484 1515.88 208.169C1517.86 212.854 1518.92 217.893 1519 222.997C1518.92 228.101 1517.86 233.14 1515.88 237.825C1513.91 242.51 1511.04 246.749 1507.46 250.3C1503.88 253.851 1499.66 256.645 1495.02 258.521C1490.39 260.397 1485.44 261.318 1480.45 261.233H1354.78Z" fill="black"/>
</svg>

